<svg width="24" height="24" viewBox="0 0 24 24" fill="none" xmlns="http://www.w3.org/2000/svg">
<path d="M3.74167 18.5545C4.94129 20 7.174 20 11.6394 20H12.3606C16.826 20 19.0587 20 20.2583 18.5545M3.74167 18.5545C2.54205 17.1091 2.95351 14.9146 3.77643 10.5257C4.36165 7.40452 4.65427 5.84393 5.76516 4.92196M3.74167 18.5545C3.74167 18.5545 3.74167 18.5545 3.74167 18.5545ZM20.2583 18.5545C21.458 17.1091 21.0465 14.9146 20.2236 10.5257C19.6383 7.40452 19.3457 5.84393 18.2348 4.92196M20.2583 18.5545C20.2583 18.5545 20.2583 18.5545 20.2583 18.5545ZM18.2348 4.92196C17.1239 4 15.5362 4 12.3606 4H11.6394C8.46384 4 6.87606 4 5.76516 4.92196M18.2348 4.92196C18.2348 4.92196 18.2348 4.92196 18.2348 4.92196ZM5.76516 4.92196C5.76516 4.92196 5.76516 4.92196 5.76516 4.92196Z" stroke="#7E7E7E" stroke-width="1.5"/>
<path d="M9.1709 8C9.58273 9.16519 10.694 10 12.0002 10C13.3064 10 14.4177 9.16519 14.8295 8" stroke="#7E7E7E" stroke-width="1.5" stroke-linecap="round"/>
</svg>
