
<svg width="25" height="24" viewBox="0 0 25 24" fill="none" xmlns="http://www.w3.org/2000/svg">
<path d="M19.5 18H20.25H19.5ZM5.5 14.584H6.25C6.25 14.2859 6.07345 14.016 5.80028 13.8967L5.5 14.584ZM19.5 14.584L19.1997 13.8967C18.9265 14.016 18.75 14.2859 18.75 14.584H19.5ZM16.25 7C16.25 7.41421 16.5858 7.75 17 7.75C17.4142 7.75 17.75 7.41421 17.75 7H16.25ZM7.25 7C7.25 7.41421 7.58579 7.75 8 7.75C8.41421 7.75 8.75 7.41421 8.75 7H7.25ZM7.5 4.25C4.32436 4.25 1.75 6.82436 1.75 10H3.25C3.25 7.65279 5.15279 5.75 7.5 5.75V4.25ZM17.5 5.75C19.8472 5.75 21.75 7.65279 21.75 10H23.25C23.25 6.82436 20.6756 4.25 17.5 4.25V5.75ZM15.5 21.25H9.5V22.75H15.5V21.25ZM9.5 21.25C8.53599 21.25 7.88843 21.2484 7.40539 21.1835C6.94393 21.1214 6.74643 21.0142 6.61612 20.8839L5.55546 21.9445C6.01093 22.4 6.57773 22.5857 7.20552 22.6701C7.81174 22.7516 8.57839 22.75 9.5 22.75V21.25ZM4.75 18C4.75 18.9216 4.74841 19.6883 4.82991 20.2945C4.91432 20.9223 5.09999 21.4891 5.55546 21.9445L6.61612 20.8839C6.4858 20.7536 6.37858 20.5561 6.31654 20.0946C6.25159 19.6116 6.25 18.964 6.25 18H4.75ZM18.75 18C18.75 18.964 18.7484 19.6116 18.6835 20.0946C18.6214 20.5561 18.5142 20.7536 18.3839 20.8839L19.4445 21.9445C19.9 21.4891 20.0857 20.9223 20.1701 20.2945C20.2516 19.6883 20.25 18.9216 20.25 18H18.75ZM15.5 22.75C16.4216 22.75 17.1883 22.7516 17.7945 22.6701C18.4223 22.5857 18.9891 22.4 19.4445 21.9445L18.3839 20.8839C18.2536 21.0142 18.0561 21.1214 17.5946 21.1835C17.1116 21.2484 16.464 21.25 15.5 21.25V22.75ZM7.5 5.75C7.7137 5.75 7.92326 5.76571 8.1277 5.79593L8.34703 4.31205C8.07021 4.27114 7.78734 4.25 7.5 4.25V5.75ZM12.5 1.25C10.1895 1.25 8.22942 2.7421 7.52709 4.81312L8.94763 5.29486C9.44981 3.81402 10.8516 2.75 12.5 2.75V1.25ZM7.52709 4.81312C7.34722 5.34352 7.25 5.91118 7.25 6.5H8.75C8.75 6.07715 8.8197 5.67212 8.94763 5.29486L7.52709 4.81312ZM17.5 4.25C17.2127 4.25 16.9298 4.27114 16.653 4.31205L16.8723 5.79593C17.0767 5.76571 17.2863 5.75 17.5 5.75V4.25ZM12.5 2.75C14.1484 2.75 15.5502 3.81402 16.0524 5.29486L17.4729 4.81312C16.7706 2.7421 14.8105 1.25 12.5 1.25V2.75ZM16.0524 5.29486C16.1803 5.67212 16.25 6.07715 16.25 6.5H17.75C17.75 5.91118 17.6528 5.34352 17.4729 4.81312L16.0524 5.29486ZM6.25 18V14.584H4.75V18H6.25ZM5.80028 13.8967C4.29769 13.2402 3.25 11.7416 3.25 10H1.75C1.75 12.359 3.1705 14.3846 5.19972 15.2712L5.80028 13.8967ZM18.75 14.584L18.75 18H20.25L20.25 14.584H18.75ZM21.75 10C21.75 11.7416 20.7023 13.2402 19.1997 13.8967L19.8003 15.2712C21.8295 14.3846 23.25 12.359 23.25 10H21.75ZM16.25 6.5V7H17.75V6.5H16.25ZM7.25 6.5V7H8.75V6.5H7.25Z" fill="#F36501"/>
<path d="M5.5 18H19.5" stroke="#F36501" stroke-width="1.5" stroke-linecap="round" stroke-linejoin="round"/>
</svg>
