<svg width="15" height="14" viewBox="0 0 15 14" fill="none" xmlns="http://www.w3.org/2000/svg">
<path d="M8.91604 2.24719L9.47217 1.69107C10.3936 0.769644 11.8875 0.769644 12.8089 1.69107C13.7304 2.61249 13.7304 4.10641 12.8089 5.02783L12.2528 5.58396M8.91604 2.24719C8.91604 2.24719 8.98556 3.42897 10.0283 4.47171C11.071 5.51445 12.2528 5.58396 12.2528 5.58396M8.91604 2.24719L3.80329 7.35994C3.457 7.70624 3.28385 7.87939 3.13494 8.0703C2.95928 8.29551 2.80868 8.53919 2.68581 8.79702C2.58164 9.01558 2.50421 9.24789 2.34934 9.71249L1.69308 11.6812M12.2528 5.58396L7.14006 10.6967C6.79376 11.043 6.62061 11.2162 6.4297 11.3651C6.20449 11.5407 5.96082 11.6913 5.70299 11.8142C5.48442 11.9184 5.25211 11.9958 4.78751 12.1507L2.81875 12.8069M2.81875 12.8069L2.3375 12.9673C2.10887 13.0435 1.85679 12.984 1.68638 12.8136C1.51596 12.6432 1.45646 12.3911 1.53267 12.1625L1.69308 11.6812M2.81875 12.8069L1.69308 11.6812" stroke="#EFEFEF" stroke-width="1.5"/>
</svg>
