
<svg width="20" height="20" viewBox="0 0 20 20" fill="none" xmlns="http://www.w3.org/2000/svg">
<path fill-rule="evenodd" clip-rule="evenodd" d="M11.3643 13.2909C12.4841 13.2909 13.3955 14.1958 13.3955 15.3081V18.1688C13.3955 18.4078 13.5871 18.5994 13.8326 18.605H15.6052C17.002 18.605 18.1376 17.4834 18.1376 16.1051V7.99177C18.1311 7.51747 17.9051 7.07106 17.5173 6.77439L11.3857 1.88442C10.5627 1.23249 9.41133 1.23249 8.58549 1.88628L2.49581 6.77253C2.09312 7.0785 1.86713 7.52491 1.86248 8.00758V16.1051C1.86248 17.4834 2.99801 18.605 4.39488 18.605H6.18421C6.43624 18.605 6.64084 18.405 6.64084 18.1595C6.64084 18.1056 6.64735 18.0516 6.65851 18.0005V15.3081C6.65851 14.2023 7.56434 13.2984 8.6757 13.2909H11.3643ZM15.6052 20H13.8158C12.791 19.9758 12.0005 19.1714 12.0005 18.1688V15.3081C12.0005 14.965 11.715 14.6859 11.3643 14.6859H8.68035C8.33717 14.6878 8.05352 14.9677 8.05352 15.3081V18.1595C8.05352 18.2293 8.04422 18.2962 8.02469 18.3595C7.92425 19.2802 7.13747 20 6.18421 20H4.39488C2.2289 20 0.467468 18.2525 0.467468 16.1051V8.00107C0.476768 7.07664 0.902711 6.23034 1.63835 5.67327L7.71593 0.795387C9.05421 -0.264819 10.9189 -0.264819 12.2544 0.793527L18.3757 5.67606C19.0945 6.22383 19.5205 7.06827 19.5326 7.98154V16.1051C19.5326 18.2525 17.7712 20 15.6052 20Z" fill="#0139A6"/>
</svg>
