<svg width="17" height="20" viewBox="0 0 17 20" fill="none" xmlns="http://www.w3.org/2000/svg">
<path fill-rule="evenodd" clip-rule="evenodd" d="M16.4716 16.299C16.4716 19.6165 11.9222 20 8.50098 20L8.25616 19.9998C6.07648 19.9945 0.52832 19.8569 0.52832 16.2789C0.52832 13.0291 4.89497 12.5948 8.2901 12.5784L8.7458 12.5781C10.9253 12.5834 16.4716 12.721 16.4716 16.299ZM8.50098 14.0877C4.21219 14.0877 2.0381 14.8245 2.0381 16.2789C2.0381 17.7464 4.21219 18.4902 8.50098 18.4902C12.7888 18.4902 14.9619 17.7534 14.9619 16.299C14.9619 14.8315 12.7888 14.0877 8.50098 14.0877ZM8.50098 0C11.4481 0 13.8446 2.39754 13.8446 5.34463C13.8446 8.29173 11.4481 10.6883 8.50098 10.6883H8.46877C5.52772 10.6792 3.14528 8.28066 3.15531 5.34161C3.15531 2.39754 5.55288 0 8.50098 0ZM8.50098 1.43731C6.34602 1.43731 4.59264 3.18967 4.59264 5.34463C4.58561 7.49255 6.32589 9.2439 8.47179 9.25195L8.50098 9.97061V9.25195C10.6549 9.25195 12.4073 7.49859 12.4073 5.34463C12.4073 3.18967 10.6549 1.43731 8.50098 1.43731Z" fill="#7E7E7E"/>
</svg>
