<svg width="13" height="23" viewBox="0 0 13 23" fill="none" xmlns="http://www.w3.org/2000/svg">
<path d="M6.63866 20.336C5.34266 20.336 4.19866 20.104 3.20666 19.64C2.21466 19.176 1.43866 18.512 0.878656 17.648C0.318656 16.784 0.0386563 15.744 0.0386563 14.528V13.856H3.15866V14.528C3.15866 15.536 3.47066 16.296 4.09466 16.808C4.71866 17.304 5.56666 17.552 6.63866 17.552C7.72666 17.552 8.53466 17.336 9.06266 16.904C9.60666 16.472 9.87866 15.92 9.87866 15.248C9.87866 14.784 9.75066 14.408 9.49466 14.12C9.23866 13.832 8.86266 13.6 8.36666 13.424C7.87066 13.232 7.26266 13.056 6.54266 12.896L5.99066 12.776C4.83866 12.52 3.84666 12.2 3.01466 11.816C2.19866 11.416 1.56666 10.896 1.11866 10.256C0.686656 9.616 0.470656 8.784 0.470656 7.76C0.470656 6.736 0.710656 5.864 1.19066 5.144C1.68666 4.408 2.37466 3.848 3.25466 3.464C4.15066 3.064 5.19866 2.864 6.39866 2.864C7.59866 2.864 8.66266 3.072 9.59066 3.488C10.5347 3.888 11.2707 4.496 11.7987 5.312C12.3427 6.112 12.6147 7.12 12.6147 8.336V9.056H9.49466V8.336C9.49466 7.696 9.36666 7.184 9.11066 6.8C8.87066 6.4 8.51866 6.112 8.05466 5.936C7.59066 5.744 7.03866 5.648 6.39866 5.648C5.43866 5.648 4.72666 5.832 4.26266 6.2C3.81466 6.552 3.59066 7.04 3.59066 7.664C3.59066 8.08 3.69466 8.432 3.90266 8.72C4.12666 9.008 4.45466 9.248 4.88666 9.44C5.31866 9.632 5.87066 9.8 6.54266 9.944L7.09466 10.064C8.29466 10.32 9.33466 10.648 10.2147 11.048C11.0947 11.448 11.7747 11.976 12.2547 12.632C12.7507 13.288 12.9987 14.128 12.9987 15.152C12.9987 16.176 12.7347 17.08 12.2067 17.864C11.6947 18.632 10.9587 19.24 9.99866 19.688C9.05466 20.12 7.93466 20.336 6.63866 20.336ZM5.17466 22.784V0.415999H8.05466V22.784H5.17466Z" fill="white"/>
</svg>
