<svg width="19" height="18" viewBox="0 0 19 18" fill="none" xmlns="http://www.w3.org/2000/svg">
<g clip-path="url(#clip0_244_222)">
<path d="M7.06371 3.67274C7.95491 1.95662 8.4005 1.09857 9.1043 1.06456C9.8081 1.03056 10.304 1.84313 11.2958 3.46826L11.5524 3.88871C11.8342 4.35052 11.9752 4.58143 12.1884 4.72797C12.4017 4.87451 12.6633 4.92009 13.1863 5.01127L13.6625 5.09427C15.5031 5.41512 16.4234 5.57554 16.6617 6.25682C16.9 6.9381 16.2985 7.68904 15.0955 9.19094L14.7843 9.5795C14.4424 10.0063 14.2715 10.2197 14.1995 10.477C14.1274 10.7342 14.1624 11.0062 14.2325 11.5502L14.2962 12.0455C14.5426 13.9599 14.6657 14.9171 14.1092 15.3722C13.5527 15.8272 12.6851 15.4788 10.9498 14.7819L10.5008 14.6016C10.0077 14.4035 9.76117 14.3045 9.50335 14.317C9.24553 14.3294 9.00565 14.4519 8.52588 14.697L8.08908 14.9201C6.40075 15.7824 5.55658 16.2136 4.97432 15.8135C4.39206 15.4135 4.45732 14.4472 4.58784 12.5146L4.6216 12.0146C4.65869 11.4654 4.67724 11.1908 4.58994 10.9412C4.50264 10.6917 4.31938 10.4954 3.95285 10.1028L3.61917 9.74542C2.32936 8.36396 1.68446 7.67323 1.88111 6.97094C2.07777 6.26864 2.98574 6.01989 4.80169 5.52238L5.2715 5.39367C5.78754 5.25229 6.04556 5.18161 6.24942 5.01491C6.45328 4.84821 6.5799 4.60438 6.83315 4.11672L7.06371 3.67274Z" stroke="#FA9A2E" stroke-width="1.5"/>
</g>
<defs>
<clipPath id="clip0_244_222">
<rect width="18" height="18" fill="white" transform="translate(0.5)"/>
</clipPath>
</defs>
</svg>
