<svg width="25" height="24" viewBox="0 0 25 24" fill="none" xmlns="http://www.w3.org/2000/svg">
<path d="M4.36376 16.4552C3.50581 13.0234 3.07684 11.3075 3.97767 10.1538C4.8785 9 6.64721 9 10.1846 9H14.8153C18.3527 9 20.1214 9 21.0222 10.1538C21.9231 11.3075 21.4941 13.0234 20.6362 16.4552C20.0905 18.6379 19.8176 19.7292 19.0039 20.3646C18.1901 21 17.0652 21 14.8153 21H10.1846C7.93476 21 6.80983 21 5.99605 20.3646C5.18227 19.7292 4.90943 18.6379 4.36376 16.4552Z" stroke="white" stroke-width="4"/>
<path d="M20 9.5L19.2896 6.89465C19.0157 5.89005 18.8787 5.38775 18.5978 5.00946C18.318 4.63273 17.9378 4.34234 17.5008 4.17152C17.0619 4 16.5413 4 15.5 4M5 9.5L5.7104 6.89465C5.98432 5.89005 6.12128 5.38775 6.40221 5.00946C6.68199 4.63273 7.06216 4.34234 7.49922 4.17152C7.93808 4 8.45872 4 9.5 4" stroke="white" stroke-width="1.5"/>
<path d="M9.5 4C9.5 3.44772 9.94772 3 10.5 3H14.5C15.0523 3 15.5 3.44772 15.5 4C15.5 4.55228 15.0523 5 14.5 5H10.5C9.94772 5 9.5 4.55228 9.5 4Z" stroke="white" stroke-width="2"/>
</svg>
