<svg xmlns="http://www.w3.org/2000/svg" xmlns:xlink="http://www.w3.org/1999/xlink" width="500" zoomAndPan="magnify" viewBox="0 0 375 374.999991" height="500" preserveAspectRatio="xMidYMid meet" version="1.0"><defs><g/><clipPath id="dac15d338b"><path d="M 127.398438 121 L 185 121 L 185 183.878906 L 127.398438 183.878906 Z M 127.398438 121 " clip-rule="nonzero"/></clipPath><clipPath id="22d1295e9f"><path d="M 141 102.878906 L 171 102.878906 L 171 122 L 141 122 Z M 141 102.878906 " clip-rule="nonzero"/></clipPath><clipPath id="03ef663024"><path d="M 190 121 L 247.398438 121 L 247.398438 183.878906 L 190 183.878906 Z M 190 121 " clip-rule="nonzero"/></clipPath><clipPath id="fe4ec234b3"><path d="M 204 102.878906 L 233 102.878906 L 233 122 L 204 122 Z M 204 102.878906 " clip-rule="nonzero"/></clipPath></defs><g clip-path="url(#dac15d338b)"><path fill="#3b7bf8" d="M 160.410156 142.773438 C 161.644531 142.433594 162.925781 143.152344 163.269531 144.386719 C 166.035156 154.363281 174.707031 161.570312 184.855469 162.632812 L 184.855469 128.167969 C 184.855469 124.253906 181.6875 121.078125 177.769531 121.078125 L 134.472656 121.078125 C 130.558594 121.078125 127.382812 124.253906 127.382812 128.167969 L 127.382812 176.582031 C 127.382812 180.496094 130.558594 183.667969 134.472656 183.667969 L 177.769531 183.667969 C 181.6875 183.667969 184.855469 180.496094 184.855469 176.582031 L 184.855469 167.300781 C 172.625 166.21875 162.117188 157.605469 158.792969 145.628906 C 158.453125 144.394531 159.171875 143.117188 160.410156 142.773438 Z M 174.140625 139.933594 C 175.886719 139.933594 177.296875 141.359375 177.296875 143.121094 C 177.296875 144.878906 175.886719 146.3125 174.140625 146.3125 C 172.398438 146.3125 170.980469 144.878906 170.980469 143.121094 C 170.980469 141.359375 172.398438 139.933594 174.140625 139.933594 Z M 174.140625 139.933594 " fill-opacity="1" fill-rule="nonzero"/></g><g clip-path="url(#22d1295e9f)"><path fill="#3b7bf8" d="M 170.257812 121.078125 L 165.617188 121.078125 L 165.617188 117.054688 C 165.617188 111.820312 161.359375 107.558594 156.125 107.558594 C 150.890625 107.558594 146.628906 111.820312 146.628906 117.054688 L 146.628906 121.078125 L 141.992188 121.078125 L 141.992188 117.054688 C 141.992188 109.257812 148.335938 102.921875 156.125 102.921875 C 163.914062 102.921875 170.261719 109.265625 170.261719 117.054688 L 170.261719 121.078125 Z M 170.257812 121.078125 " fill-opacity="1" fill-rule="nonzero"/></g><g clip-path="url(#03ef663024)"><path fill="#3b7bf8" d="M 240.472656 121.078125 L 197.171875 121.078125 C 193.257812 121.078125 190.085938 124.253906 190.085938 128.167969 L 190.085938 162.636719 C 200.234375 161.574219 208.90625 154.363281 211.683594 144.386719 C 212.023438 143.152344 213.300781 142.429688 214.535156 142.773438 C 215.769531 143.117188 216.496094 144.394531 216.15625 145.628906 C 212.828125 157.605469 202.316406 166.222656 190.085938 167.300781 L 190.085938 176.582031 C 190.085938 180.496094 193.257812 183.667969 197.171875 183.667969 L 240.472656 183.667969 C 244.386719 183.667969 247.5625 180.496094 247.5625 176.582031 L 247.5625 128.167969 C 247.5625 124.253906 244.386719 121.078125 240.472656 121.078125 Z M 200.804688 146.3125 C 199.058594 146.3125 197.644531 144.878906 197.644531 143.121094 C 197.644531 141.359375 199.058594 139.933594 200.804688 139.933594 C 202.550781 139.933594 203.96875 141.359375 203.96875 143.121094 C 203.96875 144.878906 202.550781 146.3125 200.804688 146.3125 Z M 200.804688 146.3125 " fill-opacity="1" fill-rule="nonzero"/></g><g clip-path="url(#fe4ec234b3)"><path fill="#3b7bf8" d="M 232.960938 121.078125 L 228.324219 121.078125 L 228.324219 117.054688 C 228.324219 111.820312 224.0625 107.558594 218.828125 107.558594 C 213.59375 107.558594 209.335938 111.820312 209.335938 117.054688 L 209.335938 121.078125 L 204.695312 121.078125 L 204.695312 117.054688 C 204.695312 109.257812 211.039062 102.921875 218.828125 102.921875 C 226.625 102.921875 232.964844 109.265625 232.964844 117.054688 L 232.964844 121.078125 Z M 232.960938 121.078125 " fill-opacity="1" fill-rule="nonzero"/></g><g fill="#000000" fill-opacity="1"><g transform="translate(113.907023, 235.359887)"><g><path d="M 17.671875 -13.609375 C 19.160156 -13.328125 20.382812 -12.578125 21.34375 -11.359375 C 22.3125 -10.140625 22.796875 -8.75 22.796875 -7.1875 C 22.796875 -5.757812 22.445312 -4.507812 21.75 -3.4375 C 21.050781 -2.363281 20.046875 -1.519531 18.734375 -0.90625 C 17.421875 -0.300781 15.863281 0 14.0625 0 L 2.625 0 L 2.625 -26.53125 L 13.5625 -26.53125 C 15.363281 -26.53125 16.914062 -26.238281 18.21875 -25.65625 C 19.519531 -25.070312 20.503906 -24.257812 21.171875 -23.21875 C 21.847656 -22.175781 22.1875 -21 22.1875 -19.6875 C 22.1875 -18.132812 21.773438 -16.835938 20.953125 -15.796875 C 20.128906 -14.765625 19.035156 -14.035156 17.671875 -13.609375 Z M 7.9375 -15.578125 L 12.8125 -15.578125 C 14.070312 -15.578125 15.046875 -15.863281 15.734375 -16.4375 C 16.421875 -17.007812 16.765625 -17.828125 16.765625 -18.890625 C 16.765625 -19.953125 16.421875 -20.773438 15.734375 -21.359375 C 15.046875 -21.941406 14.070312 -22.234375 12.8125 -22.234375 L 7.9375 -22.234375 Z M 13.296875 -4.328125 C 14.585938 -4.328125 15.59375 -4.628906 16.3125 -5.234375 C 17.039062 -5.847656 17.40625 -6.710938 17.40625 -7.828125 C 17.40625 -8.960938 17.023438 -9.851562 16.265625 -10.5 C 15.503906 -11.144531 14.476562 -11.46875 13.1875 -11.46875 L 7.9375 -11.46875 L 7.9375 -4.328125 Z M 13.296875 -4.328125 "/></g></g></g><g fill="#000000" fill-opacity="1"><g transform="translate(140.23602, 235.359887)"><g><path d="M 16.296875 0 L 10.453125 -10.34375 L 7.9375 -10.34375 L 7.9375 0 L 2.625 0 L 2.625 -26.53125 L 12.578125 -26.53125 C 14.628906 -26.53125 16.375 -26.164062 17.8125 -25.4375 C 19.257812 -24.71875 20.34375 -23.742188 21.0625 -22.515625 C 21.789062 -21.285156 22.15625 -19.910156 22.15625 -18.390625 C 22.15625 -16.640625 21.644531 -15.0625 20.625 -13.65625 C 19.613281 -12.25 18.109375 -11.28125 16.109375 -10.75 L 22.453125 0 Z M 7.9375 -14.328125 L 12.390625 -14.328125 C 13.828125 -14.328125 14.898438 -14.675781 15.609375 -15.375 C 16.328125 -16.070312 16.6875 -17.039062 16.6875 -18.28125 C 16.6875 -19.5 16.328125 -20.441406 15.609375 -21.109375 C 14.898438 -21.773438 13.828125 -22.109375 12.390625 -22.109375 L 7.9375 -22.109375 Z M 7.9375 -14.328125 "/></g></g></g><g fill="#000000" fill-opacity="1"><g transform="translate(166.489039, 235.359887)"><g><path d="M 7.9375 -26.53125 L 7.9375 0 L 2.625 0 L 2.625 -26.53125 Z M 7.9375 -26.53125 "/></g></g></g><g fill="#000000" fill-opacity="1"><g transform="translate(178.950876, 235.359887)"><g><path d="M 21.09375 -18.546875 C 20.476562 -19.660156 19.640625 -20.507812 18.578125 -21.09375 C 17.515625 -21.675781 16.273438 -21.96875 14.859375 -21.96875 C 13.285156 -21.96875 11.890625 -21.613281 10.671875 -20.90625 C 9.460938 -20.195312 8.515625 -19.179688 7.828125 -17.859375 C 7.140625 -16.546875 6.796875 -15.023438 6.796875 -13.296875 C 6.796875 -11.523438 7.144531 -9.976562 7.84375 -8.65625 C 8.539062 -7.34375 9.507812 -6.332031 10.75 -5.625 C 11.988281 -4.914062 13.4375 -4.5625 15.09375 -4.5625 C 17.113281 -4.5625 18.769531 -5.097656 20.0625 -6.171875 C 21.351562 -7.253906 22.203125 -8.753906 22.609375 -10.671875 L 13.484375 -10.671875 L 13.484375 -14.75 L 27.859375 -14.75 L 27.859375 -10.109375 C 27.503906 -8.253906 26.742188 -6.539062 25.578125 -4.96875 C 24.410156 -3.40625 22.90625 -2.144531 21.0625 -1.1875 C 19.226562 -0.238281 17.171875 0.234375 14.890625 0.234375 C 12.335938 0.234375 10.023438 -0.34375 7.953125 -1.5 C 5.890625 -2.65625 4.269531 -4.257812 3.09375 -6.3125 C 1.914062 -8.363281 1.328125 -10.691406 1.328125 -13.296875 C 1.328125 -15.910156 1.914062 -18.25 3.09375 -20.3125 C 4.269531 -22.375 5.890625 -23.976562 7.953125 -25.125 C 10.023438 -26.28125 12.328125 -26.859375 14.859375 -26.859375 C 17.847656 -26.859375 20.441406 -26.128906 22.640625 -24.671875 C 24.847656 -23.222656 26.367188 -21.179688 27.203125 -18.546875 Z M 21.09375 -18.546875 "/></g></g></g><g fill="#000000" fill-opacity="1"><g transform="translate(210.028908, 235.359887)"><g><path d="M 24.625 -26.53125 L 24.625 0 L 19.296875 0 L 19.296875 -11.28125 L 7.9375 -11.28125 L 7.9375 0 L 2.625 0 L 2.625 -26.53125 L 7.9375 -26.53125 L 7.9375 -15.625 L 19.296875 -15.625 L 19.296875 -26.53125 Z M 24.625 -26.53125 "/></g></g></g><g fill="#000000" fill-opacity="1"><g transform="translate(239.16934, 235.359887)"><g><path d="M 20.671875 -26.53125 L 20.671875 -22.234375 L 13.609375 -22.234375 L 13.609375 0 L 8.28125 0 L 8.28125 -22.234375 L 1.21875 -22.234375 L 1.21875 -26.53125 Z M 20.671875 -26.53125 "/></g></g></g><g fill="#3b7bf8" fill-opacity="1"><g transform="translate(128.636722, 266.622726)"><g><path d="M 0.859375 -6.984375 C 0.859375 -8.335938 1.164062 -9.554688 1.78125 -10.640625 C 2.394531 -11.734375 3.226562 -12.585938 4.28125 -13.203125 C 5.34375 -13.816406 6.519531 -14.125 7.8125 -14.125 C 9.332031 -14.125 10.660156 -13.753906 11.796875 -13.015625 C 12.929688 -12.285156 13.757812 -11.25 14.28125 -9.90625 L 12.09375 -9.90625 C 11.707031 -10.738281 11.148438 -11.378906 10.421875 -11.828125 C 9.703125 -12.285156 8.832031 -12.515625 7.8125 -12.515625 C 6.84375 -12.515625 5.972656 -12.285156 5.203125 -11.828125 C 4.429688 -11.378906 3.820312 -10.738281 3.375 -9.90625 C 2.9375 -9.070312 2.71875 -8.097656 2.71875 -6.984375 C 2.71875 -5.867188 2.9375 -4.894531 3.375 -4.0625 C 3.820312 -3.226562 4.429688 -2.582031 5.203125 -2.125 C 5.972656 -1.675781 6.84375 -1.453125 7.8125 -1.453125 C 8.832031 -1.453125 9.703125 -1.675781 10.421875 -2.125 C 11.148438 -2.570312 11.707031 -3.21875 12.09375 -4.0625 L 14.28125 -4.0625 C 13.757812 -2.726562 12.929688 -1.695312 11.796875 -0.96875 C 10.660156 -0.238281 9.332031 0.125 7.8125 0.125 C 6.519531 0.125 5.34375 -0.175781 4.28125 -0.78125 C 3.226562 -1.394531 2.394531 -2.238281 1.78125 -3.3125 C 1.164062 -4.394531 0.859375 -5.617188 0.859375 -6.984375 Z M 0.859375 -6.984375 "/></g></g></g><g fill="#3b7bf8" fill-opacity="1"><g transform="translate(147.070649, 266.622726)"><g><path d="M 7.859375 0.140625 C 6.566406 0.140625 5.382812 -0.160156 4.3125 -0.765625 C 3.25 -1.378906 2.40625 -2.226562 1.78125 -3.3125 C 1.164062 -4.394531 0.859375 -5.617188 0.859375 -6.984375 C 0.859375 -8.335938 1.164062 -9.554688 1.78125 -10.640625 C 2.40625 -11.734375 3.25 -12.582031 4.3125 -13.1875 C 5.382812 -13.789062 6.566406 -14.09375 7.859375 -14.09375 C 9.160156 -14.09375 10.34375 -13.789062 11.40625 -13.1875 C 12.476562 -12.582031 13.320312 -11.738281 13.9375 -10.65625 C 14.550781 -9.582031 14.859375 -8.359375 14.859375 -6.984375 C 14.859375 -5.609375 14.550781 -4.378906 13.9375 -3.296875 C 13.320312 -2.222656 12.476562 -1.378906 11.40625 -0.765625 C 10.34375 -0.160156 9.160156 0.140625 7.859375 0.140625 Z M 7.859375 -1.4375 C 8.828125 -1.4375 9.703125 -1.660156 10.484375 -2.109375 C 11.265625 -2.566406 11.878906 -3.210938 12.328125 -4.046875 C 12.773438 -4.890625 13 -5.867188 13 -6.984375 C 13 -8.097656 12.773438 -9.070312 12.328125 -9.90625 C 11.878906 -10.738281 11.269531 -11.378906 10.5 -11.828125 C 9.726562 -12.285156 8.847656 -12.515625 7.859375 -12.515625 C 6.867188 -12.515625 5.988281 -12.285156 5.21875 -11.828125 C 4.445312 -11.378906 3.835938 -10.738281 3.390625 -9.90625 C 2.941406 -9.070312 2.71875 -8.097656 2.71875 -6.984375 C 2.71875 -5.867188 2.941406 -4.890625 3.390625 -4.046875 C 3.835938 -3.210938 4.453125 -2.566406 5.234375 -2.109375 C 6.015625 -1.660156 6.890625 -1.4375 7.859375 -1.4375 Z M 7.859375 -1.4375 "/></g></g></g><g fill="#3b7bf8" fill-opacity="1"><g transform="translate(165.784465, 266.622726)"><g><path d="M 15.6875 -13.84375 L 15.6875 0 L 13.859375 0 L 13.859375 -10.3125 L 9.265625 0 L 7.984375 0 L 3.359375 -10.34375 L 3.359375 0 L 1.546875 0 L 1.546875 -13.84375 L 3.5 -13.84375 L 8.625 -2.40625 L 13.734375 -13.84375 Z M 15.6875 -13.84375 "/></g></g></g><g fill="#3b7bf8" fill-opacity="1"><g transform="translate(185.997688, 266.622726)"><g><path d="M 15.6875 -13.84375 L 15.6875 0 L 13.859375 0 L 13.859375 -10.3125 L 9.265625 0 L 7.984375 0 L 3.359375 -10.34375 L 3.359375 0 L 1.546875 0 L 1.546875 -13.84375 L 3.5 -13.84375 L 8.625 -2.40625 L 13.734375 -13.84375 Z M 15.6875 -13.84375 "/></g></g></g><g fill="#3b7bf8" fill-opacity="1"><g transform="translate(206.210905, 266.622726)"><g><path d="M 3.359375 -12.453125 L 3.359375 -7.796875 L 8.4375 -7.796875 L 8.4375 -6.296875 L 3.359375 -6.296875 L 3.359375 -1.5 L 9.046875 -1.5 L 9.046875 0 L 1.546875 0 L 1.546875 -13.953125 L 9.046875 -13.953125 L 9.046875 -12.453125 Z M 3.359375 -12.453125 "/></g></g></g><g fill="#3b7bf8" fill-opacity="1"><g transform="translate(219.466871, 266.622726)"><g><path d="M 8.875 0 L 5.5625 -5.703125 L 3.359375 -5.703125 L 3.359375 0 L 1.546875 0 L 1.546875 -13.9375 L 6.046875 -13.9375 C 7.097656 -13.9375 7.984375 -13.753906 8.703125 -13.390625 C 9.429688 -13.035156 9.972656 -12.550781 10.328125 -11.9375 C 10.691406 -11.320312 10.875 -10.625 10.875 -9.84375 C 10.875 -8.882812 10.597656 -8.035156 10.046875 -7.296875 C 9.492188 -6.566406 8.664062 -6.082031 7.5625 -5.84375 L 11.0625 0 Z M 3.359375 -7.15625 L 6.046875 -7.15625 C 7.023438 -7.15625 7.757812 -7.398438 8.25 -7.890625 C 8.75 -8.378906 9 -9.03125 9 -9.84375 C 9 -10.664062 8.753906 -11.300781 8.265625 -11.75 C 7.785156 -12.207031 7.046875 -12.4375 6.046875 -12.4375 L 3.359375 -12.4375 Z M 3.359375 -7.15625 "/></g></g></g><g fill="#3b7bf8" fill-opacity="1"><g transform="translate(234.622086, 266.622726)"><g><path d="M 5.953125 0.140625 C 5.035156 0.140625 4.210938 -0.0195312 3.484375 -0.34375 C 2.765625 -0.675781 2.195312 -1.128906 1.78125 -1.703125 C 1.363281 -2.285156 1.148438 -2.957031 1.140625 -3.71875 L 3.078125 -3.71875 C 3.148438 -3.0625 3.421875 -2.507812 3.890625 -2.0625 C 4.359375 -1.625 5.046875 -1.40625 5.953125 -1.40625 C 6.828125 -1.40625 7.515625 -1.617188 8.015625 -2.046875 C 8.515625 -2.484375 8.765625 -3.039062 8.765625 -3.71875 C 8.765625 -4.25 8.613281 -4.679688 8.3125 -5.015625 C 8.019531 -5.347656 7.65625 -5.601562 7.21875 -5.78125 C 6.78125 -5.957031 6.1875 -6.144531 5.4375 -6.34375 C 4.519531 -6.582031 3.785156 -6.820312 3.234375 -7.0625 C 2.679688 -7.300781 2.207031 -7.675781 1.8125 -8.1875 C 1.414062 -8.695312 1.21875 -9.390625 1.21875 -10.265625 C 1.21875 -11.023438 1.410156 -11.695312 1.796875 -12.28125 C 2.179688 -12.863281 2.722656 -13.316406 3.421875 -13.640625 C 4.128906 -13.960938 4.9375 -14.125 5.84375 -14.125 C 7.144531 -14.125 8.210938 -13.796875 9.046875 -13.140625 C 9.878906 -12.484375 10.347656 -11.617188 10.453125 -10.546875 L 8.453125 -10.546875 C 8.390625 -11.078125 8.109375 -11.546875 7.609375 -11.953125 C 7.117188 -12.359375 6.46875 -12.5625 5.65625 -12.5625 C 4.894531 -12.5625 4.273438 -12.363281 3.796875 -11.96875 C 3.316406 -11.570312 3.078125 -11.019531 3.078125 -10.3125 C 3.078125 -9.8125 3.21875 -9.398438 3.5 -9.078125 C 3.789062 -8.753906 4.144531 -8.507812 4.5625 -8.34375 C 4.988281 -8.175781 5.582031 -7.988281 6.34375 -7.78125 C 7.257812 -7.53125 8 -7.28125 8.5625 -7.03125 C 9.125 -6.78125 9.601562 -6.398438 10 -5.890625 C 10.394531 -5.378906 10.59375 -4.679688 10.59375 -3.796875 C 10.59375 -3.117188 10.410156 -2.476562 10.046875 -1.875 C 9.691406 -1.28125 9.160156 -0.796875 8.453125 -0.421875 C 7.753906 -0.046875 6.921875 0.140625 5.953125 0.140625 Z M 5.953125 0.140625 "/></g></g></g></svg>